# xmcd
# Track frame offsets:
# 150
# 23556
# 42268
# 59809
#
# Disc length: 1161 seconds
# Revision: 0
# Processed by: cddbd v1.5.2PL0 Copyright (c) Steve Scherf et al.
# Submitted via: VisiTrax 2.10.1.251 - For more info visit www.synapsa.com
#
DISCID=2f048704
DTITLE=Dylan, Bob - Modern Times [Bonus DVD-A]
DYEAR=2006
DGENRE=
TTITLE0=Blood In My Eyes
TTITLE1=Love Sick
TTITLE2=Things Have Changed
TTITLE3=Cold Irons Bound
EXTD=
EXTT0=
EXTT1=
EXTT2=
EXTT3=
PLAYORDER=
